HIERARCHY
ROOT Hips
{
	OFFSET 0.000000 0.000000 0.000000 
	CHANNELS 6 Xposition Yposition Zposition Yrotation Zrotation Xrotation 
	JOINT Lumbar
	{
		OFFSET 0.000000 0.000000 0.000000 
		CHANNELS 3 Zrotation Xrotation Yrotation
		JOINT Neck
		{
			OFFSET 0.000000 0.445665 0.000000 
			CHANNELS 3 Zrotation Xrotation Yrotation
			End Site
			{
				OFFSET 0.000000 0.227535 0.000000 
			}
		}
		JOINT RightShoulder
		{
			OFFSET 0.019635 0.377685 0.194865 
			CHANNELS 3 Zrotation Xrotation Yrotation
			JOINT RightElbow
			{
				OFFSET 0.000000 -0.243375 0.000000 
				CHANNELS 2 Zrotation Yrotation
				JOINT RightWrist
				{
					OFFSET 0.000000 -0.264825 0.000000 
					CHANNELS 2 Zrotation Xrotation
					End Site
					{
						OFFSET 0.006600 -0.176220 0.000990 
					}
				}
			}
		}
		JOINT LeftShoulder
		{
			OFFSET 0.019635 0.377685 -0.194865 
			CHANNELS 3 Zrotation Xrotation Yrotation
			JOINT LeftElbow
			{
				OFFSET 0.000000 -0.243375 0.000000 
				CHANNELS 2 Zrotation Yrotation
				JOINT LeftWrist
				{
					OFFSET 0.000000 -0.264825 0.000000 
					CHANNELS 2 Zrotation Xrotation
					End Site
					{
						OFFSET 0.006600 -0.176220 -0.000990 
					}
				}
			}
		}
	}
	JOINT RightHip
	{
		OFFSET 0.052140 -0.069960 0.075570 
		CHANNELS 3 Zrotation Xrotation Yrotation
		JOINT RightKnee
		{
			OFFSET 0.000000 -0.402270 0.000000 
			CHANNELS 1 Zrotation
			JOINT RightAnkle
			{
				OFFSET 0.000000 -0.404085 0.000000 
				CHANNELS 3 Zrotation Xrotation Yrotation
				End Site
				{
					OFFSET 0.204105 -0.089430 0.008415 
				}
			}
		}
	}
	JOINT LeftHip
	{
		OFFSET 0.052140 -0.069960 -0.075570 
		CHANNELS 3 Zrotation Xrotation Yrotation
		JOINT LeftKnee
		{
			OFFSET 0.000000 -0.402270 0.000000 
			CHANNELS 1 Zrotation
			JOINT LeftAnkle
			{
				OFFSET 0.000000 -0.404085 0.000000 
				CHANNELS 3 Zrotation Xrotation Yrotation
				End Site
				{
					OFFSET 0.204105 -0.089430 -0.008415 
				}
			}
		}
	}
}
MOTION
Frames: 26
Frame Time: 0.02
-0 0.95578 -0 177.912 0 -4.0559 5.25797 4.73051 -1.0304 -26.40914 0.42531 1.63543 15.79087 -69.55476 -77.15 22.38037 61.02092 -23.67335 0.04021 38.43795 72.85295 53.93659 15.72866 -74.61393 -26.63361 1.92179 -3.73033 8.1349 -7.53656 -6.91818 1.83709 -3.77839 -8.26545 -3.61292 2.39576 4.85652 -4.04409 6.01818 4.61886 7.18468
1e-05 0.95578 6e-05 177.99623 0 -4.04647 5.26901 4.72164 -1.11296 -26.4233 0.41272 1.66004 15.53525 -69.58502 -77.4045 22.39555 61.11402 -23.74658 0.10028 38.38312 72.85127 53.95022 15.7477 -74.58126 -26.62888 1.92254 -3.73252 8.12551 -7.62339 -6.92468 1.84596 -3.78871 -8.25199 -3.61213 2.38896 4.82095 -4.02619 6.03746 4.61157 7.12867
2e-05 0.95578 0.00012 178.08006 0 -4.03709 5.28002 4.71279 -1.19493 -26.43746 0.40027 1.68437 15.28111 -69.61529 -77.65756 22.41074 61.20595 -23.81929 0.15979 38.32858 72.84958 53.96378 15.76673 -74.54879 -26.62417 1.92331 -3.73463 8.11617 -7.70965 -6.9312 1.85478 -3.799 -8.23881 -3.61124 2.38219 4.7853 -4.00851 6.05641 4.60424 7.07327
3e-05 0.95578 0.00018 178.16308 0 -4.02779 5.29096 4.70395 -1.27527 -26.45151 0.38829 1.70768 15.03003 -69.64567 -77.90743 22.42595 61.29415 -23.89088 0.21752 38.27429 72.84789 53.97783 15.78553 -74.51704 -26.61958 1.92416 -3.73652 8.10694 -7.79435 -6.93787 1.86349 -3.80932 -8.22677 -3.61001 2.37543 4.74897 -3.99154 6.07414 4.5965 7.01979
3e-05 0.95578 0.00024 178.25036 0 -4.01804 5.30223 4.69508 -1.36415 -26.4658 0.37386 1.73625 14.76224 -69.67522 -78.17432 22.44084 61.40213 -23.96868 0.28455 38.21823 72.84625 53.99008 15.80504 -74.48185 -26.61445 1.92462 -3.73968 8.09709 -7.88716 -6.94375 1.87279 -3.81954 -8.20887 -3.61067 2.36859 4.71624 -3.97084 6.09822 4.59071 6.95618
5e-05 0.95578 0.0003 178.32856 0 -4.00926 5.3128 4.68627 -1.43493 -26.4798 0.36458 1.75375 14.53043 -69.70663 -78.40485 22.45652 61.46816 -24.03309 0.33193 38.16626 72.84447 54.00556 15.82336 -74.45368 -26.6104 1.92587 -3.74009 8.08858 -7.96283 -6.9513 1.88084 -3.8299 -8.20326 -3.6073 2.36193 4.67591 -3.95801 6.10892 4.58092 6.914
0.00011 0.95578 0.00035 178.38292 0 -4.00283 5.32155 4.67746 -1.45546 -26.49157 0.37018 1.73918 14.39299 -69.74327 -78.53783 22.4741 61.41585 -24.06241 0.3237 38.12203 72.84273 54.03483 15.83657 -74.4464 -26.61005 1.9294 -3.73298 8.08374 -7.99055 -6.96394 1.88561 -3.84137 -8.23393 -3.59249 2.35553 4.61287 -3.96772 6.08084 4.5585 6.93241
0.00018 0.95578 0.00041 178.42795 0 -3.99741 5.32958 4.66871 -1.45777 -26.50337 0.38087 1.71367 14.29324 -69.78182 -78.63318 22.49268 61.3216 -24.0779 0.29589 38.08257 72.84079 54.06603 15.84922 -74.44537 -26.61062 1.93361 -3.72307 8.08028 -8.00108 -6.97822 1.88909 -3.85286 -8.27667 -3.57364 2.34935 4.54243 -3.98526 6.03953 4.53229 6.9722
0.00026 0.95578 0.00047 178.47655 0 -3.9917 5.33784 4.66 -1.46859 -26.51603 0.38881 1.69413 14.17854 -69.81949 -78.74472 22.51087 61.24802 -24.09848 0.27792 38.04313 72.83869 54.09378 15.86295 -74.4412 -26.61039 1.93761 -3.71441 8.07623 -8.01997 -6.99145 1.89306 -3.86384 -8.31238 -3.55684 2.3432 4.47638 -3.99867 6.00539 4.50883 7.00131
0.00031 0.95579 0.00053 178.52803 0 -3.98526 5.34645 4.65101 -1.47845 -26.52478 0.39858 1.67043 14.05216 -69.85718 -78.86228 22.52831 61.16754 -24.12403 0.25594 37.99432 72.83767 54.13427 15.872 -74.44059 -26.61201 1.94163 -3.70591 8.072 -8.03673 -7.00589 1.89745 -3.87688 -8.35446 -3.53922 2.33649 4.40587 -4.0144 5.96636 4.48107 7.03451
0.0004 0.95579 0.00059 178.57119 0 -3.98059 5.35422 4.64261 -1.48597 -26.54198 0.40575 1.65273 13.96222 -69.8953 -78.95559 22.54813 61.09159 -24.13604 0.2377 37.96632 72.83432 54.14633 15.89215 -74.43119 -26.60969 1.94521 -3.69634 8.06849 -8.05362 -7.01827 1.90066 -3.8857 -8.38631 -3.52226 2.33102 4.34306 -4.02725 5.93438 4.4613 7.06424
0.00056 0.95579 0.00064 178.59439 0 -3.98043 5.35959 4.63579 -1.49167 -26.58011 0.40439 1.65478 13.93821 -69.9339 -79.01281 22.56997 61.03843 -24.11262 0.23401 37.9941 72.82461 54.09781 15.93186 -74.42167 -26.59892 1.95245 -3.68518 8.06654 -8.07708 -7.02409 1.90091 -3.88236 -8.38542 -3.50879 2.3288 4.30186 -4.02941 5.92521 4.46506 7.07944
0.00075 0.95579 0.0007 178.60934 0 -3.98203 5.36423 4.62954 -1.49559 -26.62723 0.40027 1.66315 13.95549 -69.9729 -79.04138 22.59538 60.99192 -24.07592 0.23474 38.04329 72.81244 54.01592 15.98586 -74.39917 -26.58359 1.95842 -3.67292 8.06528 -8.10086 -7.02785 1.90002 -3.87484 -8.37409 -3.49597 2.32784 4.26895 -4.02857 5.92358 4.47688 7.09038
0.00093 0.95579 0.00075 178.62764 0 -3.98288 5.36937 4.62305 -1.50026 -26.67175 0.39745 1.66825 13.96909 -70.01185 -79.07074 22.62144 60.94158 -24.04679 0.23393 38.08236 72.80153 53.93886 16.03942 -74.36468 -26.56864 1.96151 -3.66077 8.06376 -8.12326 -7.03287 1.89964 -3.8696 -8.36857 -3.48241 2.32636 4.23316 -4.02966 5.91842 4.48462 7.10303
0.00109 0.9558 0.00081 178.64753 0 -3.9835 5.37367 4.61653 -1.50468 -26.70984 0.39454 1.6746 13.91554 -70.05031 -79.15657 22.63627 60.89058 -24.01241 0.23091 38.12109 72.79052 53.91071 16.06328 -74.40239 -26.56105 1.9787 -3.65026 8.06203 -8.15046 -7.03662 1.89925 -3.8629 -8.35907 -3.47063 2.32465 4.1933 -4.02861 5.91318 4.49395 7.11723
0.00129 0.9558 0.00086 178.66198 0 -3.98506 5.3797 4.61016 -1.50927 -26.76365 0.39121 1.68009 14.01716 -70.08988 -79.11078 22.67743 60.84637 -23.98382 0.23325 38.16827 72.77853 53.76621 16.15754 -74.29101 -26.53679 1.96687 -3.63602 8.06091 -8.16774 -7.04247 1.89864 -3.85809 -8.35513 -3.45532 2.32374 4.16405 -4.03122 5.91014 4.50199 7.12711
0.00158 0.95578 0.00093 178.66599 0 -3.98853 5.38936 4.60442 -1.51617 -26.8568 0.38635 1.68079 14.48597 -70.13194 -78.77207 22.77348 60.79211 -23.99306 0.25391 38.21177 72.76963 53.36203 16.39974 -73.73511 -26.47067 1.86977 -3.61225 8.06108 -8.15939 -7.05491 1.89746 -3.86087 -8.37006 -3.43038 2.32453 4.16147 -4.04453 5.91064 4.50402 7.12428
0.00191 0.95577 0.001 178.66441 0 -3.99293 5.40103 4.59873 -1.52313 -26.96562 0.38129 1.68064 15.11898 -70.17499 -78.28874 22.89988 60.7502 -24.00517 0.27904 38.26809 72.75894 52.83036 16.7209 -73.03787 -26.38795 1.74478 -3.58463 8.06186 -8.1407 -7.06953 1.89615 -3.86552 -8.39083 -3.40181 2.32612 4.16942 -4.06161 5.91322 4.50458 7.11746
0.00223 0.95575 0.00107 178.66374 0 -3.99709 5.41267 4.59278 -1.52924 -27.06871 0.37704 1.6815 15.71005 -70.21817 -77.83206 23.02244 60.72014 -24.00389 0.29922 38.33155 72.74559 52.32401 17.03333 -72.42696 -26.31006 1.63577 -3.55852 8.06247 -8.12571 -7.08286 1.8951 -3.86835 -8.4081 -3.37475 2.32749 4.17301 -4.07699 5.91541 4.50615 7.11355
0.00253 0.95574 0.00115 178.66957 0 -4.00058 5.42063 4.58787 -1.53876 -27.16697 0.36985 1.67993 16.1642 -70.25977 -77.54544 23.09975 60.61478 -24.05322 0.33188 38.33694 72.74653 51.96067 17.22922 -71.71591 -26.24099 1.51165 -3.53361 8.06263 -8.11524 -7.09711 1.8932 -3.87485 -8.42814 -3.34838 2.32832 4.1752 -4.09219 5.91571 4.50656 7.10491
0.00288 0.95571 0.00121 178.66076 0 -4.00564 5.43666 4.58077 -1.54119 -27.27797 0.36857 1.68316 16.94249 -70.30383 -76.863 23.28266 60.67133 -23.9979 0.33952 38.47116 72.71768 51.26152 17.68941 -71.18808 -26.15275 1.4138 -3.50502 8.06388 -8.09254 -7.11032 1.89298 -3.87455 -8.44448 -3.31959 2.33045 4.18258 -4.10871 5.92011 4.50892 7.10518
0.00338 0.95566 0.00125 178.61209 0 -4.01495 5.47521 4.56782 -1.52435 -27.42794 0.38519 1.69958 18.56868 -70.36297 -75.18827 23.71649 61.1559 -23.65609 0.27651 38.91267 72.6038 49.73516 18.83675 -71.1354 -25.99362 1.3834 -3.46948 8.06807 -8.03996 -7.11738 1.89808 -3.85212 -8.4464 -3.28603 2.33599 4.20259 -4.12791 5.93714 4.51704 7.1315
0.00394 0.95559 0.00128 178.54913 0 -4.02577 5.52165 4.55263 -1.50029 -27.58858 0.40746 1.72081 20.51456 -70.42261 -73.10844 24.26343 61.8079 -23.20988 0.18773 39.49053 72.46057 47.86263 20.25301 -71.28635 -25.8229 1.38273 -3.42992 8.07341 -7.97406 -7.12385 1.90465 -3.82342 -8.44614 -3.24994 2.34281 4.22727 -4.14838 5.95784 4.5271 7.16682
0.00448 0.95553 0.00132 178.49325 0 -4.03579 5.56406 4.53832 -1.47937 -27.73942 0.42618 1.74007 22.32093 -70.4769 -71.17099 24.77824 62.39124 -22.8075 0.11171 40.03717 72.33294 46.10347 21.55973 -71.38437 -25.66816 1.37613 -3.39072 8.07806 -7.91478 -7.13239 1.91027 -3.7994 -8.44728 -3.21441 2.34902 4.24921 -4.16826 5.97557 4.53622 7.19777
0.00499 0.95547 0.00135 178.43451 0 -4.04631 5.60857 4.5246 -1.45915 -27.91223 0.44917 1.75865 24.11667 -70.55434 -69.40338 25.20582 62.93561 -22.41415 0.03353 40.45956 72.19586 44.52502 22.8102 -71.30166 -25.45531 1.33612 -3.35762 8.08307 -7.85733 -7.13339 1.91754 -3.76741 -8.44213 -3.18142 2.35536 4.2741 -4.18812 5.99881 4.54559 7.22989
0.00558 0.95542 0.00138 178.37862 0 -4.05616 5.65037 4.50914 -1.43562 -28.04099 0.46446 1.77948 25.99831 -70.58182 -67.18926 25.85023 63.6108 -21.9851 -0.04897 41.16658 72.07132 42.49007 24.24755 -71.6563 -25.37638 1.37367 -3.31083 8.08803 -7.78731 -7.14996 1.92116 -3.75089 -8.45545 -3.14238 2.36174 4.29384 -4.20852 6.01151 4.55485 7.2616
